<svg xmlns="http://www.w3.org/2000/svg" xmlns:xlink="http://www.w3.org/1999/xlink" style="display: none;">
  <!-- Symbol Definitions -->
  <symbol id="bi-exclamation-circle-fill" viewBox="0 0 16 16" fill="currentColor">
    <path d="M16 8A8 8 0 1 1 0 8a8 8 0 0 1 16 0M8 4a.905.905 0 0 0-.9.995l.35 3.507a.552.552 0 0 0 1.1 0l.35-3.507A.905.905 0 0 0 8 4m.002 6a1 1 0 1 0 0 2 1 1 0 0 0 0-2"/>
  </symbol>

  <symbol id="arrow-up-and-down" viewBox="0 0 24 24" fill="currentColor">
    <!-- Demo Usage -->
  </symbol>

  <symbol id="bi bi-exclamation-triangle" viewBox="0 0 16 16" fill="currentColor" >
    <path d="M7.938 2.016A.13.13 0 0 1 8.002 2a.13.13 0 0 1 .063.016.15.15 0 0 1 .054.057l6.857 11.667c.036.06.035.124.002.183a.2.2 0 0 1-.054.06.1.1 0 0 1-.066.017H1.146a.1.1 0 0 1-.066-.017.2.2 0 0 1-.054-.06.18.18 0 0 1 .002-.183L7.884 2.073a.15.15 0 0 1 .054-.057m1.044-.45a1.13 1.13 0 0 0-1.96 0L.165 13.233c-.457.778.091 1.767.98 1.767h13.713c.889 0 1.438-.99.98-1.767z"/>
    <path d="M7.002 12a1 1 0 1 1 2 0 1 1 0 0 1-2 0M7.1 5.995a.905.905 0 1 1 1.8 0l-.35 3.507a.552.552 0 0 1-1.1 0z"/>
  </symbol>

  <symbol id="bi-envelope-fill" viewBox="0 0 16 16" fill="currentColor">
    <path d="M.05 3.555A2 2 0 0 1 2 2h12a2 2 0 0 1 1.95 1.555L8 8.414zM0 4.697v7.104l5.803-3.558zM6.761 8.83l-6.57 4.027A2 2 0 0 0 2 14h12a2 2 0 0 0 1.808-1.144l-6.57-4.027L8 9.586zm3.436-.586L16 11.801V4.697z"/>
</symbol>


 


</svg>
